# Blender 5.0.1
# www.blender.org
mtllib HumanGL++.mtl
skeleton HumanGL++.json
g torso
v	-0.25 	0.5 	0.20 //1
v	0.25 	0.5		0.20 //2
v	0.25 	-0.5	0.20 //3
v 	-0.25	-0.5	0.20 //4
v 	0.25	0.5		-0.20 //5
v 	0.25	-0.5	-0.20 //6
v 	-0.25	0.5		-0.20 //7
v 	-0.25	-0.5	-0.20 //8
mtluse Torso
f 1 2 3 4
f 2 5 6 3
f 5 7 8 6
f 7 1 4 8
f 7 8 2 1
f 3 4 8 6
g head
v 	-0.2	0.5		0.2		//9
v 	0.2		0.5		0.2		//10
v 	0.2		0.9		0.2		//11
v 	-0.2	0.9		0.2 	//12
v 	0.2		0.5		-0.2 	//13
v 	0.2		0.9		-0.2 	//14
v 	-0.2	0.9		-0.2 	//15
v 	-0.2	0.5		-0.2 	//16
usemtl Head
f 9 10 11 12
f 10 13 14 11
f 13 14 15 16
f 15 16 9 12
f 11 14 15 12
f 9 10 13 16
g upperArm_L
v 	0.25	0.5		0.1	//17
v 	0.45	0.5		0.1	//18
v 	0.45	-0.1	0.1	//19
v 	0.25	-0.1	0.1	//20
v 	0.45	0.5		-0.1	//21
v 	0.45	-0.1	-0.1	//22
v 	0.25	0.5		-0.1	//23
v 	0.25	-0.1	-0.1	//24
usemtl Arm
f 17 18 19 20
f 18 21 22 19
f 21 23 24 22
f 23 17 20 24
f 19 22 24 20
f 17 18 21 23
g arm_L
v 	0.25	-0.1	0.1	//33
v 	0.45	-0.1	0.1	//34
v 	0.45	-0.7	0.1	//35
v 	0.25	-0.7	0.1	//36
v 	0.45	-0.1	-0.1	//37
v 	0.45	-0.7	-0.1	//38
v 	0.25	-0.1	-0.1	//39
v 	0.25	-0.7	-0.1	//40
usemtl Arm
f 25 26 27 28
f 26 29 30 27
f 29 31 32 30
f 31 25 28 32
f 27 30 32 28
f 25 26 29 31
g upperArm_R
v 	-0.25	0.5		0.1	//25
v 	-0.45	0.5		0.1	//26
v 	-0.45	-0.1	0.1	//27
v 	-0.25	-0.1	0.1	//28
v 	-0.45	0.5		-0.1	//29
v 	-0.45	-0.1	-0.1	//30
v 	-0.25	0.5		-0.1	//31
v 	-0.25	-0.1	-0.1	//32
usemtl Arm
f 33 34 35 36
f 34 37 38 35
f 37 39 40 38
f 39 33 36 40
f 35 38 40 36
f 33 34 37 39
g arm_R
v 	-0.25	-0.1	0.1	//41
v 	-0.45	-0.1	0.1	//42
v 	-0.45	-0.7	0.1	//43
v 	-0.25	-0.7	0.1	//44
v 	-0.45	-0.1	-0.1	//45
v 	-0.45	-0.7	-0.1	//46
v 	-0.25	-0.1	-0.1	//47
v 	-0.25	-0.7	-0.1	//48
usemtl Arm
f 41 42 43 44
f 42 45 46 43
f 45 47 48 46
f 47 41 44 48
f 43 46 48 44
f 41 42 45 47
g thight_R
v -0.25	-0.5 0.1	//49
v -0.01	-0.5 0.1	//50
v -0.01 -1	 0.1	//51
v -0.25	-1	 0.1	//52
v -0.01 -0.5 -0.1	//53
v -0.01	-1	 -0.1	//54
v -0.25	-0.5 -0.1	//55
v -0.25 -1	 -0.1	//56
usemtl Leg
f 49 50 51 52
f 50 53 54 51
f 53 54 56 55
f 55 56 52 49
f 49 50 53 55
f 54 56 52 51
g leg_R
v -0.25	-1		 0.1	//57
v -0.01	-1		 0.1	//58
v -0.01 -1.5	 0.1	//59
v -0.25	-1.5	 0.1	//60
v -0.01 -1		 -0.1	//61
v -0.01	-1.5	 -0.1	//62
v -0.25	-1		 -0.1	//63
v -0.25 -1.5	 -0.1	//64
usemtl Leg
f 57 58 59 60
f 58 61 62 59
f 61 62 64 63
f 63 64 60 57
f 57 58 61 63
f 62 64 60 59
g thight_L
v 0.01	-0.5 0.1	//65
v 0.25	-0.5 0.1	//66
v 0.25	-1	 0.1	//67
v 0.01	-1	 0.1	//68
v 0.25	-0.5 -0.1	//69
v 0.25	-1	 -0.1	//70
v 0.01	-0.5 -0.1	//71
v 0.01	-1	 -0.1	//72
usemtl Leg
f 65 66 67 68
f 66 69 70 67
f 69 70 72 71
f 71 72 68 65
f 65 66 69 71
f 70 72 68 67
g leg_L
v 0.01	-1		 0.1	//73
v 0.25	-1		 0.1	//74
v 0.25	-1.5	 0.1	//75
v 0.01	-1.5	 0.1	//76
v 0.25	-1		 -0.1	//77
v 0.25	-1.5	 -0.1	//78
v 0.01	-1		 -0.1	//79
v 0.01	-1.5	 -0.1	//80
usemtl Leg
f 73 74 75 76
f 74 77 78 75
f 77 78 80 79
f 79 80 76 73
f 73 74 77 79
f 78 80 76 75
g hand_R
v -0.43	-0.7	-0.08	//81
v -0.23	-0.7	-0.08	//82
v -0.23	-0.7	0.08	//83
v -0.43	-0.7	0.08	//84
v -0.23 -0.86	-0.08	//85
v -0.23 -0.86	0.08	//86
v -0.27	-0.74	0.08	//87
v -0.27	-0.86	0.08	//88
v -0.23	-0.74	0.08	//89
v -0.43	-0.74	0.08	//90
v -0.39	-0.74	0.08	//91
v -0.39 -0.86	0.08	//92
v -0.43 -0.86 	0.08	//93
v -0.43 -0.86	-0.08	//94
v -0.39 -0.86	-0.08	//95
v -0.39 -0.74	-0.08	//96
v -0.43	-0.74	-0.08	//97
v -0.23	-0.74	-0.08	//98
v -0.27	-0.74	-0.08	//99
v -0.27 -0.86	-0.08	//100
usemtl Hand
f 81 82 83 84
f 82 83 86 85
f 89 86 88 87
f 90 91 92 93
f 84 83 89 90
f 81 84 93 94
f 92 93 94 95
f 96 97 94 95
f 96 91 92 95
f 82 98 97 81
f 87 91 96 99
f 99 98 85 100
f 85 86 88 100
f 100 99 87 88
g hand_L
v 0.43	-0.7	-0.08	//101
v 0.23	-0.7	-0.08	//102
v 0.23	-0.7	0.08	//103
v 0.43	-0.7	0.08	//104
v 0.23 -0.86	-0.08	//105
v 0.23 -0.86	0.08	//106
v 0.27	-0.74	0.08	//107
v 0.27	-0.86	0.08	//108
v 0.23	-0.74	0.08	//109
v 0.43	-0.74	0.08	//110
v 0.39	-0.74	0.08	//111
v 0.39 -0.86	0.08	//112
v 0.43 -0.86 	0.08	//113
v 0.43 -0.86	-0.08	//114
v 0.39 -0.86	-0.08	//115
v 0.39 -0.74	-0.08	//116
v 0.43	-0.74	-0.08	//117
v 0.23	-0.74	-0.08	//118
v 0.27	-0.74	-0.08	//119
v 0.27 -0.86	-0.08	//120
usemtl Hand
f 101 102 103 104
f 102 103 106 105
f 109 106 108 107
f 110 111 112 113
f 104 103 109 110
f 101 104 113 114
f 112 113 114 115
f 116 117 114 115
f 116 111 112 115
f 102 118 117 101
f 107 111 116 119
f 119 118 105 120
f 105 106 108 120
f 120 119 107 108
g foot_R
v -0.25	-1.5	-0.1	//121
v -0.01	-1.5	-0.1	//122
v -0.01	-1.55	0.35	//123
v -0.25	-1.55	0.35	//124
v -0.01	-1.6	-0.1	//125
v -0.25	-1.6	-0.1	//126
v -0.01	-1.6	0.35	//127
v -0.25	-1.6	0.35	//128
usemtl Foot
f 121 122 123 124
f 121 122 125 126
f 122 123 127 125
f 123 127 128 124
f 124 128 126 121
f 125 127 128 126
g foot_L
v 0.25	-1.5	-0.1	//129
v 0.01	-1.5	-0.1	//130
v 0.01	-1.55	0.35	//131
v 0.25	-1.55	0.35	//132
v 0.01	-1.6	-0.1	//133
v 0.25	-1.6	-0.1	//134
v 0.01	-1.6	0.35	//135
v 0.25	-1.6	0.35	//136
usemtl Foot
f 132 131 130 129
f 134 133 130 129
f 133 135 131 130
f 132 136 135 131
f 129 134 136 132
f 134 136 135 133